<?xml version="1.0" encoding="UTF-8"?>
<svg id="Capa_2" data-name="Capa 2" xmlns="http://www.w3.org/2000/svg" viewBox="0 0 32.49 31.99">
  <defs>
    <style>
      .cls-1, .cls-2 {
        fill: #bdff00;
        stroke: #bdff00;
        stroke-miterlimit: 10;
      }

      .cls-2 {
        stroke-width: .5px;
      }
    </style>
  </defs>
  <g id="Capa_1-2" data-name="Capa 1">
    <g>
      <path class="cls-2" d="m30.85,19.31l-4.85-7.16c-.42-.62-1.06-1.05-1.74-1.16-.58-.1-1.13.02-1.59.34-.32.22-.54.48-.69.78-.3-.2-.64-.34-.99-.4-.58-.1-1.13.02-1.59.33-.3.21-.52.46-.67.73-.33-.26-.72-.43-1.12-.5-.58-.1-1.13.02-1.6.33-.25.17-.44.37-.59.59l-2.51-3.7c-.58-.86-1.5-1.4-2.46-1.46-1.25-.08-2.21.7-2.35,1.95-.08.75.12,1.54.58,2.22l6.15,9.08c-.78-.29-1.41-.16-1.85.03-.53.24-.93.64-1.17,1.16-.24.56-.28,1.18-.11,1.86.24.96,1.3,1.99,1.95,2.44.32.22.7.51,1.13.83,2.21,1.64,5.23,3.89,7.52,4.08,3.31.27,4.67-.54,6-1.32l.15-.09c.15-.09.37-.22.62-.39.99-.67,2.54-2.03,3.03-4.58.63-3.28-1.18-5.9-1.26-6Zm-1.24.86s1.52,2.21,1.01,4.85c-.49,2.52-2.26,3.56-2.93,3.95l-.16.1c-1.22.72-2.27,1.35-5.1,1.12-1.86-.15-4.92-2.43-6.74-3.78-.44-.33-.84-.62-1.16-.85-.55-.38-1.24-1.14-1.36-1.58-.09-.34-.07-.63.03-.87.08-.18.21-.31.4-.4.37-.17.85-.03,1.41.41l2.36,1.84c.29.23.71.21.99-.05.27-.25.31-.67.11-.97l-8.52-12.58c-.26-.38-.38-.81-.33-1.2.04-.37.19-.46.24-.5.13-.08.3-.12.51-.11.5.03.99.33,1.31.8l6.04,8.92c.23.35.7.44,1.05.2s.44-.7.2-1.05l-2.39-3.53c-.04-.22-.08-.78.29-1.03.09-.06.24-.14.5-.09.28.05.55.23.74.51l2.67,3.94c.23.35.7.44,1.05.2s.44-.7.2-1.05l-2.07-3.05c-.04-.24-.07-.77.29-1.02.09-.06.24-.14.49-.09.28.05.55.23.74.51l2.5,3.69c.23.34.7.44,1.05.2s.43-.71.2-1.05l-2.01-2.96c-.04-.24-.07-.77.29-1.02.09-.06.24-.14.49-.1.28.05.55.24.74.52l4.86,7.17Z"/>
      <g>
        <g>
          <line class="cls-1" x1="6.42" y1="13.43" x2="2.72" y2="15.94"/>
          <path class="cls-1" d="m6.84,14.06l-3.69,2.5c-.35.23-.82.14-1.05-.2s-.14-.82.2-1.05l3.69-2.5c.35-.23.82-.14,1.05.2s.14.82-.2,1.05Z"/>
        </g>
        <g>
          <line class="cls-1" x1="5.64" y1="9.65" x2="1.26" y2="8.8"/>
          <path class="cls-1" d="m6.06,10.27c-.16.11-.36.16-.57.12l-4.38-.84c-.41-.08-.68-.48-.6-.89.08-.41.48-.68.89-.6l4.38.84c.41.08.68.48.6.89-.04.21-.16.37-.32.48Z"/>
        </g>
        <g>
          <line class="cls-1" x1="7.77" y1="6.42" x2="5.26" y2="2.72"/>
          <path class="cls-1" d="m8.19,7.04c-.35.23-.82.14-1.05-.2l-2.5-3.69c-.23-.35-.14-.82.2-1.05s.82-.14,1.05.2l2.5,3.69c.23.35.14.82-.2,1.05Z"/>
        </g>
        <g>
          <line class="cls-1" x1="11.55" y1="5.64" x2="12.4" y2="1.26"/>
          <path class="cls-1" d="m11.98,6.26c-.16.11-.36.16-.57.12-.41-.08-.68-.48-.6-.89l.84-4.38c.08-.41.48-.68.89-.6.41.08.68.48.6.89l-.84,4.38c-.04.21-.16.37-.32.48Z"/>
        </g>
        <g>
          <line class="cls-1" x1="14.78" y1="7.77" x2="18.48" y2="5.26"/>
          <path class="cls-1" d="m18.9,5.89l-3.69,2.5c-.35.23-.82.14-1.05-.2s-.14-.82.2-1.05l3.69-2.5c.35-.23.82-.14,1.05.2s.14.82-.2,1.05Z"/>
        </g>
      </g>
    </g>
  </g>
</svg>